<svg id="ead2e51c-2382-40f6-a539-b533562812bf" data-name="Layer 1" xmlns="http://www.w3.org/2000/svg" viewBox="0 0 64 64"><title>MONAI-logo</title><path d="M45.24,2.81a2.78,2.78,0,0,0-2-.81H20.72a2.78,2.78,0,0,0-2,.81l-15.95,16a2.78,2.78,0,0,0-.81,2V43.28a2.78,2.78,0,0,0,.81,2l16,15.95a2.78,2.78,0,0,0,2,.81H43.28a2.78,2.78,0,0,0,2-.81L61.19,45.24a2.78,2.78,0,0,0,.81-2V20.72a2.78,2.78,0,0,0-.81-2ZM56.45,21.87V42.13L42.13,56.45H21.87L7.55,42.13V21.87L21.87,7.55H42.13Z" style="fill:#5dc1b7"/><line x1="24.23" y1="13.23" x2="13.23" y2="39.77" style="fill:none;stroke:#5dc1b7;stroke-linecap:round;stroke-linejoin:round"/><line x1="24.23" y1="13.23" x2="50.77" y2="24.23" style="fill:none;stroke:#5dc1b7;stroke-linecap:round;stroke-linejoin:round"/><line x1="50.77" y1="39.77" x2="39.77" y2="13.23" style="fill:none;stroke:#5dc1b7;stroke-linecap:round;stroke-linejoin:round"/><line x1="50.77" y1="39.77" x2="24.23" y2="50.76" style="fill:none;stroke:#5dc1b7;stroke-linecap:round;stroke-linejoin:round"/><line x1="39.77" y1="50.76" x2="13.23" y2="39.77" style="fill:none;stroke:#5dc1b7;stroke-linecap:round;stroke-linejoin:round"/><line x1="39.77" y1="50.76" x2="50.77" y2="24.23" style="fill:none;stroke:#5dc1b7;stroke-linecap:round;stroke-linejoin:round"/><line x1="13.23" y1="24.23" x2="50.77" y2="24.23" style="fill:none;stroke:#98d9d5;stroke-linecap:round;stroke-linejoin:round"/><line x1="13.23" y1="24.23" x2="39.77" y2="13.23" style="fill:none;stroke:#5dc1b7;stroke-linecap:round;stroke-linejoin:round"/><line x1="13.23" y1="24.23" x2="24.23" y2="50.76" style="fill:none;stroke:#5dc1b7;stroke-linecap:round;stroke-linejoin:round"/><line x1="13.23" y1="24.23" x2="50.77" y2="39.77" style="fill:none;stroke:#98d9d5;stroke-linecap:round;stroke-linejoin:round"/><line x1="13.23" y1="24.23" x2="39.77" y2="50.76" style="fill:none;stroke:#98d9d5;stroke-linecap:round;stroke-linejoin:round"/><line x1="24.23" y1="13.23" x2="24.23" y2="50.76" style="fill:none;stroke:#98d9d5;stroke-linecap:round;stroke-linejoin:round"/><line x1="24.23" y1="13.23" x2="39.77" y2="50.76" style="fill:none;stroke:#98d9d5;stroke-linecap:round;stroke-linejoin:round"/><line x1="24.23" y1="13.23" x2="50.77" y2="39.77" style="fill:none;stroke:#98d9d5;stroke-linecap:round;stroke-linejoin:round"/><line x1="39.77" y1="13.23" x2="13.23" y2="39.77" style="fill:none;stroke:#98d9d5;stroke-linecap:round;stroke-linejoin:round"/><line x1="39.77" y1="13.23" x2="24.23" y2="50.76" style="fill:none;stroke:#98d9d5;stroke-linecap:round;stroke-linejoin:round"/><line x1="39.77" y1="13.23" x2="39.77" y2="50.76" style="fill:none;stroke:#98d9d5;stroke-linecap:round;stroke-linejoin:round"/><line x1="50.77" y1="24.23" x2="13.23" y2="39.77" style="fill:none;stroke:#98d9d5;stroke-linecap:round;stroke-linejoin:round"/><line x1="50.77" y1="39.77" x2="13.23" y2="39.77" style="fill:none;stroke:#98d9d5;stroke-linecap:round;stroke-linejoin:round"/><line x1="24.23" y1="50.76" x2="50.77" y2="24.23" style="fill:none;stroke:#98d9d5;stroke-linecap:round;stroke-linejoin:round"/><circle cx="13.23" cy="24.23" r="1.32" style="fill:#5dc1b7"/><circle cx="13.23" cy="39.77" r="1.32" style="fill:#5dc1b7"/><circle cx="24.23" cy="50.77" r="1.32" style="fill:#5dc1b7"/><circle cx="39.77" cy="50.77" r="1.32" style="fill:#5dc1b7"/><circle cx="50.77" cy="39.77" r="1.32" style="fill:#5dc1b7"/><circle cx="50.77" cy="24.23" r="1.32" style="fill:#5dc1b7"/><circle cx="39.77" cy="13.23" r="1.32" style="fill:#5dc1b7"/><circle cx="24.23" cy="13.23" r="1.32" style="fill:#5dc1b7"/></svg>