<svg id="e6fd7fee-dc9f-4332-97c4-b9416e7f2f53" data-name="Layer 1" xmlns="http://www.w3.org/2000/svg" viewBox="0 0 400 400"><title>MONAI-logo</title><path d="M249.77,90.28a10.37,10.37,0,0,0-7.38-3.06H157.6a10.36,10.36,0,0,0-7.37,3.06L90.28,150.23a10.36,10.36,0,0,0-3.06,7.37v84.79a10.37,10.37,0,0,0,3.06,7.38l59.95,60a10.36,10.36,0,0,0,7.37,3.06h84.79a10.37,10.37,0,0,0,7.38-3.06l60-60a10.37,10.37,0,0,0,3.06-7.38V157.6a10.36,10.36,0,0,0-3.06-7.37Zm42.15,71.64v76.16l-53.84,53.84H161.92l-53.84-53.84V161.92l53.84-53.84h76.16Z" style="fill:#fff;stroke:#fff;stroke-miterlimit:10"/><line x1="168.72" y1="124.5" x2="124.5" y2="231.27" style="fill:#fff;stroke:#fff;stroke-linecap:round;stroke-linejoin:round;stroke-width:1.90355955119923px"/><line x1="168.72" y1="124.5" x2="275.5" y2="168.72" style="fill:#fff;stroke:#fff;stroke-linecap:round;stroke-linejoin:round;stroke-width:1.90355955119923px"/><line x1="275.5" y1="231.27" x2="231.27" y2="124.5" style="fill:#fff;stroke:#fff;stroke-linecap:round;stroke-linejoin:round;stroke-width:1.90355955119923px"/><line x1="275.5" y1="231.27" x2="168.72" y2="275.5" style="fill:#fff;stroke:#fff;stroke-linecap:round;stroke-linejoin:round;stroke-width:1.90355955119923px"/><line x1="231.27" y1="275.5" x2="124.5" y2="231.27" style="fill:#fff;stroke:#fff;stroke-linecap:round;stroke-linejoin:round;stroke-width:1.90355955119923px"/><line x1="231.27" y1="275.5" x2="275.5" y2="168.72" style="fill:#fff;stroke:#fff;stroke-linecap:round;stroke-linejoin:round;stroke-width:1.90355955119923px"/><line x1="124.5" y1="168.72" x2="275.5" y2="168.72" style="fill:#fff;stroke:#fff;stroke-linecap:round;stroke-linejoin:round;stroke-width:1.90355955119923px"/><line x1="124.5" y1="168.72" x2="231.27" y2="124.5" style="fill:#fff;stroke:#fff;stroke-linecap:round;stroke-linejoin:round;stroke-width:1.90355955119923px"/><line x1="124.5" y1="168.72" x2="168.72" y2="275.5" style="fill:#fff;stroke:#fff;stroke-linecap:round;stroke-linejoin:round;stroke-width:1.90355955119923px"/><line x1="124.5" y1="168.72" x2="275.5" y2="231.27" style="fill:#fff;stroke:#fff;stroke-linecap:round;stroke-linejoin:round;stroke-width:1.90355955119923px"/><line x1="124.5" y1="168.72" x2="231.27" y2="275.5" style="fill:#fff;stroke:#fff;stroke-linecap:round;stroke-linejoin:round;stroke-width:1.90355955119923px"/><line x1="168.72" y1="124.5" x2="168.72" y2="275.5" style="fill:#fff;stroke:#fff;stroke-linecap:round;stroke-linejoin:round;stroke-width:1.90355955119923px"/><line x1="168.72" y1="124.5" x2="231.27" y2="275.5" style="fill:#fff;stroke:#fff;stroke-linecap:round;stroke-linejoin:round;stroke-width:1.90355955119923px"/><line x1="168.72" y1="124.5" x2="275.5" y2="231.27" style="fill:#fff;stroke:#fff;stroke-linecap:round;stroke-linejoin:round;stroke-width:1.90355955119923px"/><line x1="231.27" y1="124.5" x2="124.5" y2="231.27" style="fill:#fff;stroke:#fff;stroke-linecap:round;stroke-linejoin:round;stroke-width:1.90355955119923px"/><line x1="231.27" y1="124.5" x2="168.72" y2="275.5" style="fill:#fff;stroke:#fff;stroke-linecap:round;stroke-linejoin:round;stroke-width:1.90355955119923px"/><line x1="231.27" y1="124.5" x2="231.27" y2="275.5" style="fill:#fff;stroke:#fff;stroke-linecap:round;stroke-linejoin:round;stroke-width:1.90355955119923px"/><line x1="275.5" y1="168.72" x2="124.5" y2="231.27" style="fill:#fff;stroke:#fff;stroke-linecap:round;stroke-linejoin:round;stroke-width:1.90355955119923px"/><line x1="275.5" y1="231.27" x2="124.5" y2="231.27" style="fill:#fff;stroke:#fff;stroke-linecap:round;stroke-linejoin:round;stroke-width:1.90355955119923px"/><line x1="168.72" y1="275.5" x2="275.5" y2="168.72" style="fill:#fff;stroke:#fff;stroke-linecap:round;stroke-linejoin:round;stroke-width:1.90355955119923px"/><circle cx="124.5" cy="168.72" r="5.3" style="fill:#fff;stroke:#fff;stroke-miterlimit:10"/><circle cx="124.5" cy="231.27" r="5.3" style="fill:#fff;stroke:#fff;stroke-miterlimit:10"/><circle cx="168.72" cy="275.5" r="5.3" style="fill:#fff;stroke:#fff;stroke-miterlimit:10"/><circle cx="231.27" cy="275.5" r="5.3" style="fill:#fff;stroke:#fff;stroke-miterlimit:10"/><circle cx="275.5" cy="231.27" r="5.3" style="fill:#fff;stroke:#fff;stroke-miterlimit:10"/><circle cx="275.5" cy="168.72" r="5.3" style="fill:#fff;stroke:#fff;stroke-miterlimit:10"/><circle cx="231.27" cy="124.5" r="5.3" style="fill:#fff;stroke:#fff;stroke-miterlimit:10"/><circle cx="168.74" cy="124.5" r="5.3" style="fill:#fff;stroke:#fff;stroke-miterlimit:10"/></svg>